<svg id="a" xmlns="http://www.w3.org/2000/svg" width="81.13" height="34.52" viewBox="0 0 81.13 34.52">
<defs>
<style>
.b{fill:#fff}
.c{fill:#1a5fac}
</style>
</defs>
<path class="b" d="m27.62,0l-2,21.12h-5.6c-.51-3.25-.97-6.94-1.36-11.08-.18,1.77-.6,5.47-1.25,11.08h-5.57L9.84,0h4.36l.47,7.37.46,7.12c.17-3.69.58-8.52,1.24-14.49h4.66c.06.62.22,2.94.49,6.97l.5,8.04c.26-5.11.67-10.11,1.25-15h4.36Z"/>
<path class="b" d="m39.2,0l-2.57,9.54,2.82,11.59h-4.64l-1.82-9.05v9.05h-4.49V0h4.49v8.21l2-8.21h4.21Z"/>
<path class="b" d="m50.24,0v21.12h-3.93l-2.33-9.6v9.6h-3.75V0h3.75l2.51,9.51V0h3.75Z"/>
<path class="b" d="m52.04,0h3.36c2.17,0,3.63.12,4.4.37.76.24,1.34.64,1.74,1.2.4.56.65,1.18.75,1.86.1.68.15,2.02.15,4.02v7.4c0,1.9-.07,3.16-.22,3.8-.15.64-.4,1.14-.76,1.5s-.81.61-1.34.76c-.53.14-1.34.22-2.41.22h-5.66V0Zm4.49,3.61v13.89c.65,0,1.04-.16,1.19-.48.15-.32.22-1.18.22-2.59V6.24c0-.96-.02-1.57-.07-1.84-.05-.27-.16-.47-.34-.59-.18-.13-.51-.19-1-.19Z"/>
<path class="c" d="m13.85,23.35c-.05.16-.08.28-.05.3.02.02-.03.47-.24,1.57-.05.28-.11.68-.17.92-.04.23-.08.46-.09.5-.02.05-.05.14-.04.21,0,.11-.17.94-.25,1.2-.01.09-.07.34-.11.55-.03.25-.11.68-.17.96-.15.89-.56,3.62-.55,3.73,0,.07,0,.16-.03.25-.03.12-.09.13-.38.15-.15.03-.35.01-.42,0-.09-.03-.14-.02-.19.03-.04.05-.12.07-.19.05-.11-.03-.38.15-.37.24.01.11-.29.36-.38.31-.07-.05-.09-.05-.15.03-.06.03-.11.04-.27-.04-.12-.07-.17-.15-.16-.22,0-.04-.01-.11-.04-.1-.05-.01-.11-.14-.19-.28-.11-.2-.12-.27-.03-.26.05.01.06-.01.04-.07-.04-.11-.06-.1-.09-.03-.04.05-.04,0-.06-.1-.01-.11-.02-.2-.09-.21-.07-.03-.07-.05-.01-.11.04-.05.06-.05,0-.07-.16-.02-1.02-2.54-1.71-5-.06-.15-.09-.23-.11-.18-.02.03-.18.54-.37,1.13-.17.6-.35,1.23-.42,1.42-.22.75-.82,2.98-.89,3.3-.05.3-.11.35-.2.37-.32.05-1.72.37-1.91.47-.33.17-.66.2-.82.11-.17-.11-.37-.65-.22-.67q.06-.01,0-.04c-.12-.05-.33-1.43-1.01-6.27-.19-1.37-.38-2.65-.42-2.86-.05-.19-.14-.73-.21-1.14-.23-1.34-.48-2.56-.6-3.03-.07-.21-.15-.64-.2-.9l-.06-.5.24-.02c.48-.06.76-.06.86.01.05.04.09.03.15-.03.09-.01.13-.02.15,0,.03.08.3.08.29,0,0-.02.04-.05.06-.03.04,0,.06-.01.08-.06.01-.09.32-.05.34.08,0,.07.05.06.09-.01.09-.19.17-.07.5,1.18.34,1.16,1.11,5.5,1.37,7.56.07.41.12.76.14.78,0,0,.08-.24.2-.52.32-.98.67-2.02.94-2.86.16-.47.29-.87.28-.91,0-.02.06-.08.12-.13.06-.05.11-.15.1-.26-.01-.09,0-.13.07-.14.09-.01.08-.04.01-.07-.07-.05-.08-.1-.02-.17.04-.05.03-.32-.06-.86l-.1-.8.37-.04c.26-.02.51-.02.66,0,.18.06.23.05.24,0,.01-.09.08-.08.26,0l.24.12-.02-.13q-.01-.11.23-.1c.15-.03.26,0,.29.02.02.02.09.03.13,0,.08-.04.15,0,.19.12.12.25.27.6.45,1.15.08.25.26.84.43,1.33.27.78.42,1.26.57,1.75.13.49.5,1.67.52,1.67,0,.02.04,0,.06-.05.02-.16.33-1.61.41-2.04.49-2.41.79-3.75.84-3.65.03.06.05.06.04-.05.01-.09,0-.16-.02-.2-.07-.17.06-.57.18-.65.08-.06.1-.08,0-.11t.03-.12s.09-.19.11-.33c.05-.14.1-.26.12-.31.04,0,.02-.05-.03-.04-.06.01-.13,0-.14-.02,0-.04.01-.07.06-.05.05.04.18-.16.16-.27,0-.04.01-.09.03-.09s.05-.14.05-.3c.02-.16.05-.3.12-.31.04-.03.06-.05.03-.09,0-.02,0-.04.01-.09.04,0,.08-.08.07-.14-.02-.17.07-.66.16-.8q.08-.1.24,0c.09.05.21.12.26.13.07.01.07.03-.01.09-.04.03-.07.12-.08.21.01.29-.01.6-.06.61-.02,0-.04.05-.03.12,0,.13-.01.25-.07.34-.02.03-.04.07.01.09.02.02,0,.06-.03.12-.1.1-.06.41.05.39.06-.01.07.03.07.19-.04.41-.11.73-.15.74-.02,0-.01.07,0,.13.01.09.04.13.08.12.04,0,.11,0,.12.05,0,.02-.06.05-.12.07-.04,0-.1.06-.11.17-.01.07-.08.28-.12.44-.02.18-.03.27.02.31.07.05.09,0,.08-.1,0-.07,0-.13.02-.18.04,0,.06-.05.03-.09-.05-.04.01-.09.05-.12.12-.06.22-.01.09.05-.02.05-.05.12-.04.21.04.28-.05.67-.15.71-.02.03-.04.07,0,.11.08.08.11.18.04.17-.02-.02-.06.01-.11.04t.05.04s.05.06.07.19c-.03.09-.02.2-.01.25-.04.05-.05.12-.09.17-.04.03-.05.12-.01.25.01.11.02.2,0,.2-.06.01-.16.31-.09.35.11.03.04.3-.09.33-.06.01-.08.06-.04.21.01.11.05.21.07.23.02.02,0,.04-.01.07-.04.03-.04.18-.05.3l-.02.2.05-.16c.14-.29.22-.72.29-1.18.06-.43.1-.59.13-.4q.01.09.06-.01c.04-.05.02-.18,0-.24-.04-.13-.02-.17.07-.14q.09,0,.01-.07c-.09-.05-.1-.07-.02-.13s.1-.1.06-.19c-.04-.11-.04-.13.03-.12.07.03.09-.01.06-.05-.03-.06-.04-.13,0-.18.04-.03.05-.12.06-.21.04-.23.09-.35.14-.27.02.02.06-.01.14-.13.08-.21.07-.5-.03-.42-.02.03-.06.01-.07-.05,0-.04.06-.08.1-.06.11-.02.22-.33.22-.55-.02-.13.07-.17.11-.04.08.08.04.28-.03.29-.02,0-.04.05-.01.09.02.02,0,.11-.07.17-.03.09-.09.19-.07.34.01.11.01.26-.02.34-.04.07-.06.21-.05.3.01.09,0,.16-.04.21-.02.03-.02.16-.03.27-.01.27-.02.36-.08.43-.02.05-.03.09.01.09,0,0,0,.11-.03.25-.02.16-.05.28-.03.29.02.02-.01.07-.05.14-.09.15-.08.26,0,.24.02,0,.06-.03.05-.1,0-.07,0-.13.03-.14.04-.05.05-.14.08-.28-.02-.13.05-.34.09-.48s.08-.28.05-.3c-.03-.04-.03-.06.01-.07.02,0,.04-.03.04-.07,0-.29.07-.52.15-.54.06-.01,0,.35-.12.66Zm-11.63-1.89s.04-.05.01-.09c-.03-.04-.05-.04-.04.05,0,.04.03.06.03.04Zm.16.93s.06-.03.06-.08c0-.02-.03-.04-.05-.04s-.04.03-.06.05c0,.04,0,.07.05.06Zm.67,4.64s.09.03.12.09c0,.04,0-.02,0-.16-.01-.11.03-.25.05-.3.06-.03.06-.05-.01-.09-.02,0-.1-.07-.11-.14-.03-.06-.02.03-.02.2.02.2.02.33-.03.32-.02-.02-.06.01-.08.04s0,.04.07.03Zm-.05-1.08s.03.08.03.04c.02,0,.02-.05.01-.09-.03-.04-.05-.04-.04.05Zm.04.33s.04-.03.03-.09c0-.02,0-.07-.03-.06,0,0-.02.05-.04.07-.01.07.01.09.03.08Zm.65,3.62c-.05-.08-.13-.49-.18-.88-.08-.63-.11-.74-.21-.81q-.1-.07-.06.03c.09.18.26,1.38.25,1.64-.02.16-.01.27.02.31.07.05.09.23.02.37-.04.07-.04.18-.02.2.08.1.19-.25.16-.49-.02-.15,0-.24.04-.23.02.02.02-.05-.02-.15Zm-.3,1.63s-.03-.04-.07-.05c-.02,0-.06.01-.06.03,0,.02.05.06.07.05.04,0,.06-.01.06-.03Zm.21-6.25s0-.07-.05-.06c0,0-.04.05-.04.07-.02.03-.02.05.03.04.02,0,.06-.03.06-.05Zm.3,2.06c-.03-.06-.05-.04-.04.03,0,.07.04.11.03.08.04-.03.03-.09,0-.11Zm.1.76c-.03-.06-.05-.04-.04.03,0,.04.03.06.03.06.04-.03.04-.07.01-.09Zm.06.5s-.05-.01-.04.05c0,.04.03.08.03.06.04-.03.04-.07,0-.11Zm1.7,1.09s-.05-.04-.05-.04c-.04,0-.06.03-.06.05,0,.04.03.04.07.03,0,0,.04,0,.04-.05Zm.36-1.04s-.03-.06-.05-.06c-.04,0-.08.06-.08.08-.02.05,0,.04.05.04s.09-.01.08-.06Zm0-.47c-.06.03-.1.08-.08.1.07.05.14.04.17-.07q.05-.12-.09-.03Zm.7-2.14s-.18.14-.19.25c-.03.14,0,.13.08.08.04-.03.12-.11.13-.18,0-.07.03-.14-.02-.15Zm1.62-1.51s-.09,0-.13.02c-.02.03-.02.05.05.04.06-.01.11-.04.08-.06Zm.1.25c-.09-.03-.11.04-.05.14q.08.1.06-.01s0-.11-.02-.13Zm.13.51c-.05-.06-.05-.04-.04.03,0,.07.01.11.03.06.02,0,.01-.07.01-.09Zm.21.61s-.04,0-.04.05c.01.09.01.11.05.06.02-.03.01-.09-.01-.11Zm-.02-2.08c0,.07.04.11.05.06.02,0,.01-.07.01-.09-.05-.06-.07-.03-.06.03Zm.24,2.98s0-.18-.07-.34c-.05-.19-.11-.32-.1-.27-.03.09.12.62.17.62Zm.21.65s-.02-.15-.06-.32c-.04-.17-.1-.27-.12-.27-.04.05-.05.1-.05.14.15.35.19.46.23.45Zm.07.52s.07.05.08.12.03.08.05.08c.04-.03.02-.16-.04-.28-.04-.15-.12-.25-.14-.22-.06.03-.03.27.04.3Zm.21.79c0,.11.02.2.05.21.05.01.05.04.05.06-.02.03,0,.04.03.06s.08.1.08.14c0,.07.01.11.04.11.02-.03-.03-.26-.11-.51-.05-.26-.12-.47-.17-.48-.03-.04-.05-.01-.04.03,0,.02-.01.09-.02.16-.04.07-.01.09.03.08.02,0,.05.08.06.14Zm.36.76c-.01-.11-.04-.13-.12-.11-.13.02-.19.1-.06.08.02,0,.07.05.08.14.01.09.04.13.06.1.04-.03.05-.12.04-.21Zm-.08-2.54l.06.14v-.13c.02-.07.01-.13-.04-.15-.07-.05-.08.04-.03.14Zm.12.25h.04s-.03-.05-.05-.07c-.05-.01-.06.01-.06.03,0,.02.03.04.07.03Zm.17.5c0-.07-.04-.15-.08-.14s-.03.14.04.28c.03.04.06-.03.05-.14Zm1.94.19s-.04,0-.04.05c.01.09.01.11.05.06,0-.02-.01-.09-.01-.11Zm.14-.8c-.04.07-.09.3-.07.3.02,0,.08-.08.09-.19.03-.09.03-.14-.01-.11Zm.15-.38s-.03-.04-.05-.04c0,0-.04.03-.06.05t.05.04s.06-.01.06-.05Zm.15-.73c-.01-.09-.03-.08-.14-.02-.04.05-.1.1-.09.15,0,.04.03.06.07.03.02-.03.04,0,.05.04.01.11.12-.09.11-.2Zm-.13-2.42s.08-.06.1-.08c.06-.08-.03-.08-.11,0-.04.05-.03.09.01.09Zm.04-4.25s.03.04.03.04c.02,0,.06-.01.06-.05.02-.03,0-.04-.05-.04-.02,0-.04.03-.04.05Zm.19,3.45c.03-.09.04-.18.08-.26.05-.1.04-.21-.02-.2-.04,0-.05.12-.08.26-.05.32-.04.41.02.2Zm0-4.44c.01.09.09.03.21-.12.08-.1.12-.13.19-.1.05.04.07.03.06-.01,0-.07-.05-.06-.16-.04-.04,0-.07-.03-.12-.07-.04-.1-.06-.1-.04,0,.02.2-.03.32-.1.28-.02,0-.04,0-.04.05Zm.08,2.21c-.07.17.05.24.14.09.1-.08.11-.15.04-.18-.07-.05-.05-.26.03-.27.04,0,.04-.03.02-.05-.1-.07-.18-.01-.18.16.01.09-.02.2-.06.25Zm.03-3.07q.06-.08.03-.25s.04-.07.08-.04c.02.02.04.1.03.22-.05.32-.04.38.07.21.06-.08.09-.15.05-.16-.07-.01-.01-.29.07-.32.1-.06.2.19.12.22q-.06.05.01.09c.07.01.07.03.03.06-.06.03-.08.06-.08.1.01.11-.13.2-.26.2-.11,0-.18-.24-.15-.33Zm.08.96q-.07-.03-.02.05s.08.08.07.05c.02-.03,0-.07-.06-.1Zm.13,8.95s-.03-.04-.08-.08c-.02,0-.04,0-.04.05,0,.02.03.04.05.04h.06Zm.07-.86c-.09.15-.11.2-.02.18.04,0,.06-.01.06-.05,0,0,.01-.07,0-.13q.03-.09-.04,0Zm.14-5.37s-.07-.01-.07-.05c-.05-.04-.03-.06.04-.05.09,0,.14.09.04.11Zm0,4.93s-.05-.01-.06.01c-.02.03-.03.09-.02.16q.01.11.04,0c.01-.07.05-.12.05-.16Zm.08-5.21c-.05.12-.07.14-.11.04-.03-.06.04-.54.08-.46.07.17.08.28.03.42Zm.06,4.14c-.03.14-.08.28-.12.31-.04,0-.04.05.03.08.05.06.05.08,0,.11s-.08.08-.05.14c.03.06.08.08.1.07.02-.03.04-.07.01-.09,0-.02-.01-.09,0-.13.05-.12.13-.51.15-.71,0-.18-.09-.03-.13.22Zm.01-7.84s.02-.03.08-.04c.02.02.09.03.09.05s-.06.03-.08.04c-.06.01-.09,0-.09-.05Zm.12,6.06s.04-.03.04-.07c-.05-.01-.04-.13,0-.24.03-.09.04-.21.02-.22s-.06.03-.06.05c-.02.05-.03.14-.04.18-.06.21-.05.32.06.3Zm0-1.02s.01-.07.05-.14q.04-.07.05.01c0,.07,0,.11-.03.12-.04.05-.06.03-.06.01Zm.54-1.33c-.03.09-.14.13-.15.05,0-.02.04-.05.06-.05.04,0,.06-.03.01-.09-.02-.02,0-.07.04-.07.06-.01.07.05.04.17Zm.1,1c.08.08-.02.56-.1.64-.04.03-.06.03-.06.01,0-.02.03-.12.06-.23.03-.09.06-.25.05-.34q-.02-.13.06-.08Zm.09-.19s.03.08-.01.09c-.02.03-.02,0-.03-.06,0-.04,0-.07.04-.03Zm.08-.43s0,.04-.02.05c-.02,0-.05-.01-.07-.03-.02-.02-.03-.06.04-.07.02,0,.05.04.05.06Z"/>
<path class="c" d="m25.55,29.4c-.04-.1-.08-.28-.09-.41-.06-.15-.08-.32-.12-.4-.03-.08-.05-.21-.1-.25,0-.04-.06-.12-.07-.17,0-.04-.06-.1-.06-.12-.02,0-.03-.06-.01-.11,0-.04-.03-.08-.08-.08-.04,0-.06.05-.02.18.12.25.18.53.11.54-.04,0-.04.05,0,.06.07.03.08.1.07.23,0,.13.02.2.05.19.04,0,.05.01.05.06-.02,0,.01.11.05.24.04.1.04.17.02.15-.07-.01-.06.03.02.15.08.14.16.42.1.45-.04.05-.02.05.03.08.07.03.2.74.14.75t-.05-.04s-.06-.1-.07-.19c-.03-.08-.08-.28-.09-.41-.02-.15-.08-.28-.1-.29-.05-.04-.06-.12-.07-.17.01-.07-.02-.13-.06-.14-.02-.02-.03-.04-.02-.13q.05-.12,0-.07s-.04,0-.03-.08c.01-.09,0-.16-.04-.15-.02-.02-.04,0-.04.05.02.15-.14.09-.16-.04-.03-.06-.01-.11.05-.12.04,0,.08-.08.06-.21-.01-.11-.07-.19-.09-.18-.04,0-.07.12,0,.29,0,.04-.04.03-.09-.03-.08-.08-.11-.16-.11-.2,0-.07-.04-.15-.09-.23-.13-.16-.25-.6-.17-.66.04,0,.04-.05-.02-.13-.05-.06-.09-.19-.07-.23,0-.07-.01-.11-.08-.1-.09-.03-.08-.14.01-.27q.06-.08-.02-.02c-.06.01-.09,0-.12-.09-.05-.06-.07-.17-.07-.21.02-.03-.01-.11-.02-.15-.03-.04-.12-.27-.18-.55-.11-.31-.12-.45-.11-.51.06-.05.03-.09-.04-.15-.05-.04-.1-.07-.1-.07-.01-.11-.04-.1-.07-.01-.04.18-.01.42.05.41.04,0,.08.08.07.23.02.13.05.26.1.27.07.05.19.46.12.42-.09-.05-.1.1,0,.18.03.04.08.08.08.12,0,.02.01.09.04.15.1.27.14.44.09.41-.04,0-.06.03-.05.1s.04.11.08.1c.02,0,.03.06.02.15-.04.18.04.28.13.18.08-.04.09.19.01.26-.04.07-.05.14-.01.27.05.08.07.17.02.17-.02,0-.02.05.01.11,0,.06.06.1.1.09s.09,0,.09.05c0,.02-.02.05-.06.03-.02-.02-.04,0-.04.03s.05.06.1.07q.09,0,0,.02s-.06.05-.06.08c.03.04.04.17.08.28.04.17.05.19-.02.18-.09,0-.1.08.01.11.02.02,0,.02-.08.04q-.16-.02-.11.33c.05.19.09.34.11.32.02,0,.05.04.06.12.01.11-.02.18-.04.18-.06.01-.05.16.02.17.05.01.09.16.13.36.05.19.11.38.16.42.03.04.03.06,0,.07-.04,0-.09,0-.14-.04-.05-.06-.08-.1-.09-.18,0-.02-.02,0-.04.03-.06.08.03.24.2.39.12.09.18.17.11.18-.04,0-.09,0-.14-.04-.05-.04-.07-.01-.04.07.01.09.05.19.08.25.02.17.13.16.11-.04-.02-.15.07-.17.13-.02.09.18.04.35-.07.32-.05-.01-.09,0-.08.04,0,.02.07.03.12.05.09,0,.14.04.12.09-.01.07.01.11.08.1.14.02.11.14-.02.16-.09.01-.14-.02-.15-.11l-.02-.13-.02.16c-.01.07-.02.16,0,.18,0,.02-.04.05-.12.06-.06.01-.11.04-.12.09-.02.05-.04.05-.09.01-.05-.06-.07-.05-.09.01-.01.09-.2.14-.32.08-.14-.07-.31-.5-.19-.48.05.01.09-.01.06-.08-.11-.34-.16-.4-.18-.37-.04.05-.06.03-.06.01s.01-.07.05-.1c.02-.03.02-.05.01-.07s-.04-.17-.11-.32c-.06-.28-.14-.44-.12-.29,0,.02,0,.07-.04.07-.04,0-.05-.08-.07-.19.01-.09-.02-.2-.02-.2-.06.01-.28-.62-.24-.67.02-.03,0-.07-.04-.11-.03-.04-.12-.27-.17-.46-.16-.55-.16-.57-.42-1.42-.29-.91-.84-2.68-.9-2.78-.03-.04-.18,0-.51.15-.23.13-.54.27-.6.3-.08.04-.27.13-.42.2-.15.07-.69.31-1.19.55-1.33.64-1.25.58-1.33.84-.05.14-.07.3-.07.32.01.09-.18.54-.24.55-.02-.02-.02,0,0,.04.06.1-.03.12-.11.02-.08-.08-.22,0-.17.07.02.02.03.04,0,.04-.06.01-.13.22-.12.31.02.02,0,.04-.04.05-.04,0-.08.21-.07.3.02.02-.02.05-.06.05-.02,0-.02.05-.01.09.03.04.01.09-.03.12-.04,0-.08.06-.04.07,0,.04,0,.07-.04.07-.04,0-.04.03-.01.07.05.06-.05.14-.12.11-.05-.01-.04-.13-.01-.26.05-.28.04-.41-.02-.17-.04.18-.16.27-.18.14,0-.02.04-.05.06-.05s.04-.03.02-.05c-.03-.04-.01-.11.02-.18.06-.08.12-.31.11-.51,0-.02.05-.16.09-.33.05-.16.09-.33.09-.37,0-.02.01-.07.04-.07s.04-.05.03-.09c-.01-.11-.06-.1-.22.01-.06.05-.12.13-.09.17,0,.02-.04.05-.1.06q-.09.01-.08-.08c.01-.07.01-.09-.02-.02-.06.05-.03.09.03.22.11.16.12.22-.03.25-.06.01-.1.06-.09.15s0,.18-.04.21c-.04,0-.26.6-.26.75,0,.04-.05.12-.11.17-.08.06-.12.11-.08.1.02,0,0,.02-.04.05-.04.05-.04.07.07.05q.13-.02.05.06c-.06.03-.13.04-.15.05-.02-.02-.04.03,0,.11s.05.19,0,.2c-.04.05-.03.09-.03.12.02.02,0,.04-.04.05-.06.01-.08.06-.06.19.01.11,0,.16-.03.14-.05-.06-.07-.03-.1.06-.06.08-.05.1.03.08.06-.01.07.01.05.01-.04.05-.07.12-.09.19-.01.09-.05.12-.07.12-.05-.04-.05-.01-.02.03.05.08-.03.27-.12.29q-.09.01-.02-.13c.04-.07.07-.17.02-.16,0-.04-.01-.09.03-.12.02-.05-.01-.09-.06-.12-.07-.05-.09-.05-.09.01.02.15,0,.29-.05.34-.02,0-.04.07-.03.14,0,.04-.03.12-.05.14-.06.03-.09,0-.05-.08.01-.07-.01-.09-.05-.04-.06.01-.11.04-.13.04s0,.02.03.04c0,.04.01.09-.05.12-.1.06-.09.15.02.13.04,0,.08-.06.08-.1s.01-.09.06-.08c.04,0,.07.05.08.1-.01.07.01.11.1.09.18,0,.2-.01.32.06.07.05.1.09.06.15-.06.08-.57.21-1.09.25-.33.03-.42.02-.45-.06-.03-.06-.06-.1-.1-.09-.04,0-.06-.15-.04-.3.02-.05.04-.07.06-.03.05.04.09-.01.09-.13q.05-.16-.03-.08t-.05-.06c.04-.07.09-.15.11-.15s.06-.05.03-.12c-.04-.15.15-.93.37-1.66.03-.14.08-.26.08-.28s.22-.86.36-1.35c.03-.09.11-.35.17-.6.06-.23.13-.51.17-.6.08-.21.07-.3-.15-.46-.23-.25-.44-.5-.41-.64,0-.16.13-.22.63-.46.35-.17.43-.23.52-.4.07-.12.1-.24.1-.26,0-.04.09-.33.41-1.31.04-.21.2-.7.32-1.12.6-2.07,1.26-4.05,1.96-5.87l.13-.35.44-.05c.26-.04.51-.02.62,0,.12.05.2.03.22-.01.08-.1.19-.08.22,0,.04.13.23.09.24-.02.01-.09.36-.15.46-.05.05.04.14.04.2.01.15-.07.59.66,1.09,1.86.27.56,1.21,2.93,1.4,3.45.07.23.16.42.17.44s.13,0,.24-.06c.19-.08.23-.08.35-.01.1.07.12.07.05.01-.08-.08-.06-.1.11-.17.23-.08.38.03.47.25.03.08.09.16.13.18.09,0,.18.19.09.21-.04,0,0,.04.05.08.12.05.09.23,0,.18-.02-.02-.07-.01-.06.01,0,.04-.06.08-.14.11-.09.01-.17.05-.21.08-.02.05-.06.05-.06.01,0,0-.06.01-.19.05-.14.09-.16.12-.15.2.04.1.02.13-.05.14-.15.03-.16.12-.09.35.04.15.09.21.18.24.11-.02.11,0,.05.08q-.08.06,0,.02c.08-.04.13-.02.18.04.05.04.12.05.11.03.04-.03.01-.07-.03-.08-.05-.01-.08-.08-.04-.13.02-.05.04-.03.14.02.03.06.08.08.07.03s.06-.05.17-.07c.22,0,.28-.09.09-.15-.05-.01-.07-.05-.08-.1.06-.08.21-.06.21.05,0,.02.05.04.11.03.04,0,.13,0,.18.04.07.01-.12.13-.56.29-.04.03-.1.06-.1.06,0,0-.02.03-.06.03-.02.03-.06.03-.08.04,0,.02-.06.05-.1.06-.28.07-.27.13.08,1.34.26.87.28.97.36,1.32.04.15.12.4.16.59.07.17.12.47.17.66.03.22.07.39.1.41.03.04.06.15.08.28.02.15.06.28.06.3.08.1.09.18.05.19-.06.01-.12-.07-.17-.26Zm-10.35,1.74s-.03-.06-.03-.06c-.02,0-.04.03-.06.08t.05.04s.04,0,.04-.05Zm.39-.58s-.06.03-.06.08c0,.02-.06.21-.12.42q-.14.45-.01.42.11-.02.07-.14c-.03-.08-.02-.17.04-.23.06-.05.08-.08.03-.09-.02,0-.02-.02.02-.05.02-.03.05-.1.07-.14,0-.07.02-.16.02-.2.04-.05.01-.07-.05-.06Zm.12-.13s-.03-.06-.05-.06-.06.05-.08.08t.07.03s.06-.01.06-.05Zm.05-.28q0-.13-.05-.04c-.04.07-.07.14-.05.16q.07.05.09-.13Zm.35,2.47c.11.14.11.16,0,.29l-.12.13v-.11c-.05-.08-.09-.12-.16-.11-.17.03-.17-.13,0-.16.06-.03.15-.07.14-.11.04-.05.09-.01.14.07Zm-.21-2.92s-.09-.03-.11.02c-.04,0-.04.03.02.02.06-.01.08-.04.08-.04Zm-.03.63s0-.04-.03-.04-.04.03-.06.05c0,.04,0,.07.05.06.02,0,.04-.03.04-.07Zm-.02,2.16s0-.24.05-.28c.04,0,.07.01.06.1,0,.16-.04.23-.11.17Zm.2-.85s0-.04.02,0c.07.01.05.08-.05.3-.05.1-.06.08-.05-.04.04-.07.07-.17.07-.17.02-.03.04-.05.01-.09Zm.02.51s-.03-.04-.03-.04c.15-.07.21-.06.22,0,0,.07-.14.11-.19.03Zm0-.67s.04-.07.07-.12q.06-.05.05.01c-.03.09-.11.15-.12.11Zm.49-.52c-.09.19-.13.35-.16.51,0,.13-.02.16-.08.08-.02-.02-.04-.1-.03-.22.01-.09-.02-.15-.04-.15-.02.03-.05-.01-.05-.08,0-.07,0-.13.03-.14.02,0,.04-.05.03-.09,0-.07.01-.09.1-.08.07.01.11-.02.11-.04s.04-.07.12-.09c.08-.04.09.03-.03.29Zm-.29.69s.09.03.09.03c0,.02-.04.05-.08.08-.04.03-.06.01-.07-.05,0-.04.02-.05.06-.05Zm.18,1.08c.01.11-.05.12-.12.09-.07-.05-.06-.14.02-.16.04,0,.09.03.1.07Zm-.07-1.76s-.01-.09-.03-.08c-.02,0-.02.05-.05.1,0,.04.01.09.05.08.02,0,.04-.05.03-.09Zm.06,2.03s-.04.05-.08.06c-.02,0-.02-.02,0-.04,0-.02.04-.07.06-.08.04,0,.05.04.03.06Zm-.06-2.57s.01-.07.04-.07c.04,0,.07.03.07.05,0,.04-.01.07-.06.08-.02,0-.05-.01-.05-.06Zm.48-.75c-.05-.06-.19.03-.18.12,0,.07.05.06.13,0,.04-.05.08-.1.05-.12Zm-.08-.28c-.06.01-.06.03-.06.08.03.04.05.04.07.03,0,0,.04,0,.04-.05.02-.05,0-.07-.05-.06Zm.61-.08s-.09.48-.13.51c-.04,0-.07.12-.08.21-.03.14-.14.29-.16.16,0-.02.01-.07.05-.12s.05-.14.04-.23c-.03-.22.17-.6.29-.54Zm-.05-.72s-.06.08-.05.1c0,.04-.01.09-.05.12-.04.05-.06.08-.03.07.04,0,.08-.04.1-.06.1-.06.12-.26.04-.23Zm-.02.38s-.05-.04-.07-.03c-.04,0-.06.03-.06.05,0,.04.05.06.09.05s.06-.03.04-.07Zm.17-.6c-.01-.09-.04-.11-.1-.09-.04.03-.05.1-.05.16,0,.04.03.08.08.08.06-.01.08-.06.07-.14Zm.47-3.83s-.04.03-.05-.01c-.01-.11-.16.16-.15.22.02.13.26-.04.25-.15.01-.07-.01-.09-.05-.06Zm.11-.15s-.05-.04-.08-.08c-.02,0-.06.01-.06.05,0,.02.05.04.07.03s.06-.01.06-.01Zm0-.64l-.07.17c-.09.13-.09.15,0,.2.05.04.09.05.09.05,0,0,.01-.09,0-.22l-.02-.2Zm.3-.8l.03-.14-.11.17c-.05.12-.1.24-.09.33,0,.04,0,.13-.05.16-.06.05-.06.08,0,.07.04,0,.08-.06.08-.1.02-.05.05-.14.06-.21.04-.07.06-.19.08-.28Zm.24,1.2c-.08.04-.08.21-.02.2.02,0,.06-.05.08-.1-.01-.09-.02-.13-.06-.1Zm.13-.2s-.04,0-.08.06q-.06.08.03.04c.06-.03.08-.08.05-.1Zm.05-.1s.08-.06.08-.08c-.01-.09-.14-.02-.15.07-.02.05,0,.04.07.01Zm.11-.55s.05.04.03.08c0,.04.01.09.05.08s.06-.03.04-.05-.03-.06,0-.11c.06-.08-.04-.13-.12-.05q-.06.05-.02.05Zm1.79-.16c-.05-.19-.25-.74-.4-1.24-.15-.46-.29-.88-.32-.95-.03-.08-.11.15-.36.97-.06.21-.21.63-.32.96-.09.33-.19.61-.19.63,0,.02-.06.21-.1.42-.08.21-.13.4-.12.42s.07.01.15-.03c.08-.04.19-.08.23-.1.82-.34,1.51-.63,1.55-.68,0-.02-.05-.19-.12-.4Zm-.1,3.21c-.06.03-.1.08-.1.1,0,.07.18,0,.19-.08,0-.04-.03-.04-.09-.03Zm.12-.84c-.12-.11-.25-.09-.17.03,0,.07.03.06.05.01,0-.07.04-.07.11-.02q.09.05.02-.03Zm1.16-5.21c-.03-.06-.05-.04-.04.03,0,.07.04.1.03.08.02-.03.01-.09,0-.11Zm.7,1.88c-.01-.09-.06-.15-.09-.16-.02-.02-.04.05-.03.14.05.19.14.22.11.03Zm.78,8.53s-.03-.04-.05-.04c-.04,0-.04.03-.04.05.03.04.05.06.07.05.02,0,.02-.03.01-.07Zm.42,1.77s.03.08.01.11-.05-.01-.05-.06c-.01-.09.01-.09.04-.05Zm.11-4.06s.01.09.03.08.04-.03.04-.07c0-.07-.04-.11-.06-.1-.02-.02-.02,0-.01.09Zm.07-.99s.03.06.05.06c.02,0,.04-.03.04-.07,0-.02-.03-.04-.05-.04-.02,0-.04.03-.04.05Zm.19,5.89c-.03-.06-.06-.12-.08-.12,0,0,0,.07.02.13,0,.07.04.1.06.1.04,0,.04-.05,0-.11Zm-.01-3.97s.04.11.08.1c.02,0,.02-.03.01-.07-.04-.13-.11-.16-.09-.03Zm.08,1.5s-.06.03-.06.05c0,.04.03.06.05.06,0,0,.02-.03.04-.07.02-.03,0-.04-.03-.04Zm-.04-7.34c0,.07.04.11.03.06.04,0,.04-.07.01-.09-.03-.06-.05-.04-.04.03Zm.17,6.3c-.02-.13-.08-.14-.09,0,0,.04.03.08.05.08.02,0,.04-.03.04-.07Zm0-4.13c.11.14.17.13.13-.02-.05-.26-.14-.38-.17-.28-.02.05,0,.11.02.13.05.06.05.08.01.09-.04,0-.04.05.01.09Zm.07,5.51q-.06.08.03.04s.08-.06.06-.08c-.02-.02-.04,0-.08.04Zm.11.18c-.06-.12-.13.02-.07.17.04.1.06.1.07.03.04-.07.02-.16,0-.2Zm.15-1.11s-.05-.01-.11-.03c-.07-.01-.09-.03-.06-.1.04-.05.06-.08.06-.03,0,.04.02.02.04-.05.04-.05.06-.05.08.08,0,.07,0,.13,0,.13Zm-.07-3.94s.04-.07.02-.18c0-.07-.04-.15-.06-.15-.02,0-.03.09-.02.16.01.11.04.17.07.17Zm.08-2.92s.12.05.12.07-.06.03-.11.04c-.09.01-.13,0-.14-.07s.04-.07.13-.04Zm-.06,6.91s.03.06.04.1c0,.04-.01.07-.01.07-.04,0-.05-.04-.05-.08,0-.07-.01-.11.03-.09Zm.24.32s-.04.05-.08.04c-.07-.01-.09.01-.06.03.03.04.03.06-.04.07q-.09.01-.01-.11c.1-.1.18-.12.19-.03Zm.03-5.95c.07.03.05.06-.05.1-.21.12-.25.09-.16-.02.1-.1.14-.11.21-.08Zm-.22,1.79s.06-.01.06-.05c0-.02-.03-.06-.05-.06,0,0-.04.05-.04.07t.03.04Zm.1.27s.02-.05-.01-.11c0-.06-.06-.1-.08-.1-.02,0-.02.05,0,.11.03.06.06.1.1.09Zm.04,1.53c-.01-.09-.06-.12-.1-.12-.02,0-.01.07.04.13.08.14.15.13.06-.01Zm-.03-1.48s-.03.12.03.22c0,.07.04,0,.03-.09,0-.06-.04-.13-.06-.12Zm.25.8c-.04-.13-.09-.23-.14-.24-.07-.03-.07-.05,0-.07.04,0,.04-.05.03-.12-.01-.11-.11-.14-.09-.03,0,.04,0,.13-.02.22-.03.09,0,.11.03.08.04-.03.06-.03.03.04,0,.04.01.11.06.14.05.04.06.12.06.15-.02.03,0,.04.03.04.06-.01.06-.05.02-.22Zm-.14,3.64c.01.09,0,.13-.03.14,0,0-.03-.04-.06-.12,0-.04-.01-.11,0-.11s.07.05.08.1Zm.08-7.85c-.03.12-.13.16-.11.04.02-.05.04-.07.05-.1.04-.03.07.01.05.06Zm.02,8.25s.02.13.02.2c-.02.05-.04,0-.06-.1-.01-.09,0-.16.03-.09Zm.1-1.99s-.07-.01-.08-.08c0-.02.01-.07.01-.07.04,0,.09.03.09.05.05.06.01.09-.03.09Zm.18-6.33c.01.11-.13.16-.19.05,0-.04.01-.09.05-.1q.12-.06.14.04Zm-.01,1.13c-.07.14-.09.15-.15.05-.02-.02-.03-.04,0-.02.05.01.09,0,.15-.05q.06-.08,0,.02Zm-.07,5.27s.05.04.05.06t-.04.03s-.05-.04-.05-.06c0-.02.02-.05.04-.03Zm.07.34c.03.06.04.13,0,.16-.02.03-.05-.04-.06-.1-.02-.17,0-.2.06-.05Zm.14-5.55s-.04.07-.04.07c-.02,0-.05-.01-.05-.06,0-.02.04-.05.06-.05s.05.01.03.04Zm-.04-1.24s0-.07.04-.05c0,0,.05.04.05.06,0,.04-.04.05-.04.05-.04,0-.05-.01-.05-.06Zm.04.64s.04-.07.04-.07c0,0,.02.02.03.06s-.02.05-.04.05t-.03-.04Zm.16-.12s.05.06.05.08c-.05.1-.08.08-.09-.03,0-.04.01-.07.04-.05Zm.12.65s-.08.08-.08.04c-.02,0-.03-.06-.06-.1q-.01-.09.06-.05s.08.08.08.12Zm-.02-.66s.03-.09.05-.1.07.01.07.05c0,.02-.04.07-.06.08-.02.05-.06.01-.07-.03Zm.35.19s-.13.02-.19.08c-.06.01-.13.02-.14-.02-.05-.06-.01-.09.12-.09.06-.01.15-.05.15-.07.02-.05.04-.03.07.01.03.04.01.09-.01.09Zm-.2,5.96c.03.08.02.15,0,.16,0,0-.02-.02-.03-.04-.02,0-.03-.08-.04-.15-.03-.06-.04-.13-.02-.13.04,0,.08.08.09.16Zm.16,2.17s-.05-.08-.06-.12c0-.07.01-.07.06-.03.03.04.05.08.04.13,0,.04-.02.05-.04.03Zm-.02-7.9s.03.04.03.06c-.05.1-.06.08-.07-.01,0-.04.01-.07.04-.05Zm.09,8.09s.03.06.01.09c-.02.03-.02-.02-.03-.06,0-.07-.01-.09.02-.03Zm.12.23s.04.11.01.11c-.04.05-.06.01-.07-.05-.02-.13,0-.16.06-.05Z"/>
<path class="c" d="m39.77,31.02c-.01.07-.62-.39-.64-.49,0-.02-.18-.19-.4-.36-.1-.07-.19-.15-.22-.19.08.08.13.16.09.16-.02,0,0,.02.05.06.09.05.64.54.82.73.05.08.11.18.12.27.01.11.02.13-.08.06-.02-.02-.11-.03-.15,0-.04.03-.09.01-.11-.03t-.02.03c.01.11-.09.17-.1.08,0-.07-.28-.29-.75-.72-.17-.13-.3-.28-.3-.28-.03-.04-.05-.06-.09-.05-.09.01.04.15.29.35.12.11.23.23.26.29,0,.07.06.12.1.09.02,0,.05.04.04.13-.01.09.01.09.07.05s.06-.03.07.01c-.04.07.27.36.3.3.02-.03.02,0,0,.04,0,.04-.09.15-.17.21-.08.08-.13.16-.13.18s-.04.05-.08.06c-.04,0-.08.06-.08.08.01.09-.4.51-.47.48,0-.02-.07-.01-.14-.02-.04,0-.29-.17-.54-.42-.25-.23-.84-.73-1.31-1.14-.47-.39-.96-.82-1.14-.97-.15-.13-.47-.43-.7-.64-.42-.35-.87-.81-1.79-1.75-.91-.89-1.04-1.07-1.19-1.25-.23-.27-.28-.29-.46-.15-.11.15-.11.2-.15.78.01.11-.01.27,0,.36-.02.16-.07,1.56-.06,1.63t-.02.03c-.07-.05-.11-.56-.1-1.12.01-.27.02-.51,0-.53s-.03-.06.01-.07c.02,0,.03-.12.01-.27,0-.18-.04-.28-.08-.28-.02,0-.04.07-.03.12,0,.07-.03.12-.05.12-.02,0-.02.05.01.11.03.06.06.14.04.17-.03.09-.04.58-.04.89.02.17,0,.31-.05.34-.04.03-.04.07.01.09.09.03.03.26-.06.23-.06.01-.11.02-.15.07,0,.04-.02.03,0-.04,0-.11-.02-.13-.06-.12-.04.03-.05.1-.02.16,0,.06,0,.11-.03.12-.06.01-.07-.05-.08-.25s-.01-.26-.05-.24c-.04,0,0-.07.02-.16.07-.14.08-.24.02-.34-.07-.19-.09-.56,0-.73.06-.21.04-.38-.09-.36-.04,0-.08.04-.08.06,0,.04-.04.07-.1.08-.04,0-.06.03-.04.07,0,.04.01.11-.02.16-.04.05-.04.07,0,.04.08-.08.18.01.11.14-.08.1-.11.35-.05.3.04-.05.08-.04.09-.01,0,.04-.04.07-.06.08-.02,0-.04.07-.07.12,0,.04-.03.12-.05.16q0,.07.05.04c.06-.05.06-.03.01.09-.01.07-.07.12-.14.13q-.06.01.01.09c.09.03.1.09.08.32-.02.16-.05.3-.07.32-.04.05-.06.05-.05-.01.02-.05,0-.11-.02-.13-.04,0-.06.03-.05.12.01.09.04.13.08.12.04,0,.03.04-.03.09-.06.08-.08.1-.03.09.13-.04.18,0,.17.08-.03.14-.09.17-.15.03-.03-.06-.03-.04-.04.05,0,.06.06.1.1.09.09-.01.09.03.06.12,0,.07-.02.2,0,.29.01.11,0,.2,0,.22,0,.02-.06.03-.11.04-.08.04-.11.02-.1-.12.01-.07,0-.16.04-.18.08-.08.09-.17,0-.35-.07-.17-.15-.17-.27-.02-.09.13-.08.21.04.15.11-.04.11-.02.1.12,0,.11-.01.27,0,.38.02.15,0,.18-.15.2-.11.02-.24.06-.34.1-.11.04-.26.04-.42,0q-.27-.04-.28-.27c-.01-1,0-1.26-.02-1.53,0-.13.01-.42.01-.62,0-.98,0-1.75-.05-1.83-.03-.06-.06-.12-.1-.12-.11.02-.57-.35-.59-.48-.01-.11.05-.16.36-.3.25-.15.37-.24.38-.33.04-.05.07-.68.07-1.37.04-.72.09-1.9.16-2.62l.1-1.33-.19-.1c-.07-.05-.17-.1-.17-.13,0-.07-.32-.3-.46-.32-.05-.01-.38-.2-.7-.44q-.58-.41-.56-.62c.12-.46,1.55-1.57,2.8-2.13,1.04-.48,2.71-.92,3.46-.93.51,0,1.15.17,1.62.44.52.29,2.11,1.54,2.4,1.87.33.37.49.72.57,1.17.23,1.29-.52,2.73-2.31,4.42-.35.35-1.15,1.06-1.39,1.23-.51.37-.49.33-.06.76.2.21.56.57.78.78.21.23.65.62.95.91.3.28,1,.9,1.5,1.37,1.05.96,1.27,1.14,1.92,1.75.75.7,1.15,1.1,1.12,1.17Zm-11.59-11.66s-.03-.04-.07-.03c-.02,0-.02.03,0,.04,0,.04.03.06.05.06,0,0,.02-.03.01-.07Zm.92,9.61s-.04.05-.04.07.03.04.03.04c.02,0,.04-.03.06-.05,0-.02,0-.07-.05-.06Zm.37-.22s-.03-.06-.07-.05c-.02,0-.06.03-.06.08-.02.05,0,.04.05.04s.09-.01.08-.06Zm-.08.28s-.06.03-.06.08c0,.02.01.11,0,.22,0,.18.07.23.12.07.02-.16-.02-.37-.07-.37Zm.6-6.67c.04-.05.08-.08.03-.09,0-.02-.06.01-.12.06-.09.13-.03.14.09.03Zm.4,6.92c.03.77.01.97-.03.98-.06.01-.09-.05-.1-.25,0-.13,0-.33.01-.42-.02-.15-.02-.2-.11-.2q-.11,0-.03.12t-.02.03c-.07-.01-.12-.09-.13-.13,0-.07.13-.16.19-.08.02,0,.07.01.11,0,.02,0,.02-.03,0-.04-.05-.04-.08-.08-.04-.17.08-.21.14-.13.15.17Zm-.26-6.26s-.02-.02-.07-.05c-.02,0-.04,0-.04.05,0,.02.03.04.05.04.04,0,.06-.01.06-.03Zm-.02,6.17s-.05-.01-.05-.06c0-.02.04-.05.06-.05s.05.01.03.04c-.02.05-.04.07-.04.07Zm.01-7.1s-.06.05-.05.12c.01.11.05.08.08-.06,0-.07-.01-.11-.03-.06Zm.08,5.91s-.06.03-.06.05c0,.04.03.06.03.06.02,0,.04-.03.06-.08.02-.03,0-.04-.03-.04Zm.02-.54c-.04.07-.06.19-.06.23.02.15.09.03.11-.2q0-.13-.05-.04Zm0-.49c-.06-.1-.05-.08-.04.05.02.13.02.15.06.1.04-.07.05-.12-.02-.15Zm.47,2.65c0,.07-.03.14-.05.14-.02,0-.07-.05-.08-.12,0-.07.02-.16.05-.16.02,0,.08.08.08.14Zm-.08-3.09c-.03-.06-.05-.04-.04.03,0,.07.04.11.03.06.02,0,.01-.07.01-.09Zm.08,3.61s-.01.07-.06.08c-.02,0-.05-.01-.05-.04s.01-.07.03-.09c.04-.03.07.01.07.05Zm.32-4.14s-.14-.04-.16-.02c-.02.03.03.04.07.03h.09Zm4.13-8.61c-.05-.41-.15-.46-.77-.47-.57,0-1.35.18-2.21.48-.76.26-.86.32-.84.52.02.15-.06,1.61-.17,2.69-.08,1.12-.18,2.43-.18,2.45,0,.07.11-.02.78-.62,2.59-2.23,3.56-3.67,3.38-5.04Zm-1.58,5.68c-.01.07,0,.07.05.06.02,0,.04-.05.05-.1,0-.11-.08-.08-.11.04Zm3.37,6.3c-.05-.06-.15-.15-.25-.2l-.17-.13.15.13c.07.05.13.16.14.2,0,.07.06.1.1.09.09.03.11,0,.03-.09Zm.84.7c-.05-.06-.25-.23-.42-.35-.27-.22-.29-.24-.16-.08.06.1.18.21.25.27.05.04.12.09.12.11.01.09.25.25.29.2,0,0-.03-.08-.08-.14Zm-.01-.8c-.07-.05-.17-.11-.17-.11-.04,0,.03.06.1.12.08.08.17.13.19.12.02,0-.03-.06-.13-.13Zm.42.4c-.05-.08-.12-.11-.15-.13-.04,0,0,.07.11.14.17.15.19.15.04,0Zm.68,1.57s.07.01.07.05c0,.04-.02.05-.02.05-.02,0-.04,0-.07-.03-.03-.04-.03-.06.01-.07Zm.15-.18s.08.1.12.09c.02,0,.04-.05.01-.09-.03-.08-.14-.09-.13,0Z"/>
<path class="c" d="m51.32,29.11c-.01.07-.62-.39-.64-.49,0-.02-.18-.19-.4-.36-.1-.07-.19-.15-.22-.18.08.08.13.16.09.16-.02,0,0,.02.05.06.09.05.64.54.82.73.05.08.11.18.12.27.01.11.02.13-.08.06-.02-.02-.11-.03-.15,0-.04.03-.09.01-.11-.03t-.02.03c.01.11-.09.17-.1.08,0-.07-.28-.29-.75-.72-.17-.13-.3-.28-.3-.28-.03-.04-.05-.06-.09-.05-.09.01.04.15.29.35.12.11.23.23.26.29,0,.07.06.12.1.09.02,0,.05.04.04.13-.01.09.01.09.07.05q.06-.03.07.01c-.04.07.27.36.3.3.02-.03.02,0,0,.04,0,.04-.09.15-.17.21-.08.08-.13.16-.13.18s-.04.05-.08.06-.08.06-.08.08c.01.09-.4.51-.47.48,0-.02-.07-.01-.14-.02-.04,0-.29-.17-.54-.42-.25-.23-.84-.73-1.31-1.14-.47-.39-.96-.82-1.14-.97-.15-.13-.47-.43-.7-.64-.42-.35-.87-.81-1.79-1.75-.91-.89-1.04-1.07-1.19-1.25-.23-.27-.28-.29-.46-.15-.11.15-.11.2-.15.78.01.11-.01.27,0,.36-.02.16-.07,1.56-.06,1.63t-.02.03c-.07-.05-.11-.56-.1-1.12.01-.27.02-.51,0-.53s-.03-.06.01-.07c.02,0,.03-.12.01-.27,0-.18-.04-.28-.08-.28-.02,0-.04.07-.03.12,0,.07-.03.12-.05.12-.02,0-.02.05.01.11.03.06.06.14.04.17-.03.09-.04.58-.04.9.02.17,0,.31-.05.34-.04.03-.04.07.01.09.09.03.03.26-.06.23-.06.01-.11.02-.15.07,0,.04-.02.03,0-.04,0-.11-.02-.13-.06-.12-.04.03-.05.1-.02.16,0,.06,0,.11-.03.12-.06.01-.07-.05-.08-.25s-.01-.26-.05-.24c-.04,0,0-.07.02-.16.07-.14.08-.24.02-.34-.07-.19-.09-.56,0-.73.06-.21.04-.38-.09-.36-.04,0-.08.04-.08.06,0,.04-.04.07-.1.08-.04,0-.06.03-.04.07,0,.04.01.11-.02.16-.04.05-.04.07,0,.04.08-.08.18.01.11.14-.08.1-.11.35-.05.3.04-.05.08-.04.09-.01,0,.04-.04.07-.06.08s-.04.07-.07.12c0,.04-.03.12-.05.16q0,.07.05.04c.06-.05.06-.03.01.09-.01.07-.07.12-.14.13q-.06.01.01.09c.09.03.1.09.08.32-.02.16-.05.3-.07.32-.04.05-.06.05-.05-.01.02-.05,0-.11-.02-.13-.04,0-.06.03-.05.12.01.09.04.13.08.12s.03.04-.03.09c-.06.08-.08.1-.03.09.13-.04.18,0,.17.08-.03.14-.09.17-.15.03-.03-.06-.03-.04-.04.05,0,.06.06.1.1.09.09-.01.09.03.06.12,0,.07-.02.2,0,.29.01.11,0,.2,0,.22,0,.02-.06.03-.11.04-.08.04-.11.02-.1-.12.01-.07,0-.16.04-.18.08-.08.09-.17,0-.35-.07-.17-.15-.17-.27-.02-.09.13-.08.21.04.15.11-.04.11-.02.1.12,0,.11-.01.27,0,.38.02.15,0,.18-.15.2-.11.02-.24.06-.34.1-.11.04-.26.04-.42,0q-.27-.04-.28-.27c-.01-1,0-1.26-.02-1.53,0-.13.01-.42.01-.62,0-.98,0-1.75-.05-1.83-.03-.06-.06-.12-.1-.12-.11.02-.57-.35-.59-.48-.01-.11.05-.16.36-.3.25-.15.37-.24.38-.33.04-.05.07-.68.07-1.37.04-.72.09-1.9.16-2.62l.1-1.33-.19-.1c-.07-.05-.17-.1-.17-.13,0-.07-.32-.3-.46-.32-.05-.01-.38-.2-.7-.44q-.58-.41-.56-.62c.12-.46,1.55-1.57,2.8-2.13,1.04-.48,2.71-.92,3.46-.93.51,0,1.15.17,1.62.44.52.29,2.11,1.54,2.4,1.87.33.37.49.72.57,1.17.23,1.29-.52,2.73-2.31,4.42-.35.35-1.15,1.06-1.39,1.23-.51.37-.49.33-.06.76.2.21.56.57.78.78.21.23.65.62.95.91.3.28,1,.9,1.5,1.37,1.05.96,1.27,1.14,1.92,1.75.75.7,1.15,1.1,1.12,1.17Zm-11.59-11.66s-.03-.04-.07-.03c-.02,0-.02.03,0,.04,0,.04.03.06.05.06,0,0,.02-.03.01-.07Zm.92,9.61s-.04.05-.04.07.03.04.03.04c.02,0,.04-.03.06-.05,0-.02,0-.07-.05-.06Zm.37-.22s-.03-.06-.07-.05c-.02,0-.06.03-.06.08-.02.05,0,.04.05.04s.09-.01.08-.06Zm-.08.28s-.06.03-.06.08c0,.02.01.11,0,.22,0,.18.07.23.12.07.02-.16-.02-.37-.07-.37Zm.6-6.67c.04-.05.08-.08.03-.09,0-.02-.06.01-.12.06-.09.13-.03.14.09.03Zm.41,6.92c.03.77.01.97-.03.98-.06.01-.09-.05-.1-.25,0-.13,0-.33.01-.42-.02-.15-.02-.2-.11-.2q-.11,0-.03.12t-.02.03c-.07-.01-.12-.09-.13-.13,0-.07.13-.16.19-.08.02,0,.07.01.11,0,.02,0,.02-.03,0-.04-.05-.04-.08-.08-.04-.17.08-.21.14-.13.15.17Zm-.26-6.26s-.02-.02-.07-.05c-.02,0-.04,0-.04.05,0,.02.03.04.05.04.04,0,.06-.01.06-.03Zm-.02,6.17s-.05-.01-.05-.06c0-.02.04-.05.06-.05s.05.01.03.04c-.02.05-.04.07-.04.07Zm.01-7.1s-.06.05-.05.12c.01.11.05.08.08-.06,0-.07-.01-.11-.03-.06Zm.08,5.91s-.06.03-.06.05c0,.04.03.06.03.06.02,0,.04-.03.06-.08.02-.03,0-.04-.03-.04Zm.02-.54c-.04.07-.06.19-.06.23.02.15.09.03.11-.2q0-.13-.05-.04Zm0-.49c-.06-.1-.05-.08-.04.05.02.13.02.15.06.1.04-.07.05-.12-.02-.15Zm.47,2.65c0,.07-.03.14-.05.14-.02,0-.07-.05-.08-.12,0-.07.02-.16.05-.16s.08.08.08.14Zm-.08-3.09c-.03-.06-.05-.04-.04.03,0,.07.04.11.03.06.02,0,.01-.07.01-.09Zm.08,3.61s-.01.07-.06.08c-.02,0-.05-.01-.05-.04s.01-.07.03-.09c.04-.03.07.01.07.05Zm.32-4.14s-.14-.04-.16-.02.03.04.07.03h.09Zm4.13-8.61c-.05-.41-.15-.46-.77-.47-.57,0-1.35.18-2.21.48-.76.26-.86.32-.84.52.02.15-.06,1.61-.17,2.69-.08,1.12-.18,2.43-.18,2.45,0,.07.11-.02.78-.62,2.59-2.23,3.56-3.67,3.38-5.04Zm-1.58,5.68c-.01.07,0,.07.05.06.02,0,.04-.05.05-.1,0-.11-.08-.08-.11.04Zm3.37,6.3c-.05-.06-.15-.15-.25-.2l-.17-.13.15.13c.07.05.13.16.14.2,0,.07.06.1.1.09.09.03.11,0,.03-.09Zm.84.7c-.05-.06-.25-.22-.42-.35-.27-.22-.29-.24-.17-.08.06.1.18.21.25.27.05.04.12.09.12.11.01.09.25.25.29.2,0,0-.03-.08-.08-.14Zm-.01-.8c-.07-.05-.17-.11-.17-.11-.04,0,.03.06.1.12.08.08.17.13.19.12.02,0-.03-.06-.13-.13Zm.42.4c-.05-.08-.12-.11-.15-.13-.04,0,0,.07.11.14.17.15.19.15.04,0Zm.68,1.57s.07.01.07.05c0,.04-.02.05-.02.05-.02,0-.04,0-.07-.03-.03-.04-.03-.06.01-.07Zm.15-.18s.08.1.12.09c.02,0,.04-.05.01-.09-.03-.08-.14-.09-.13,0Z"/>
<path class="c" d="m53.99,15.4c-.02,1.6-.03,2.56-.06,3.03,0,.47-.02,1.42-.02,2.11-.01.25-.03.45-.03.49-.01.07-.02.16-.02.2,0,.33-.03.85-.03.98-.03.12-.04.21-.04.21.03.08.02.17-.02.16-.05-.01-.07-.05-.06-.1.01-.07-.01-.09-.12-.07-.09.01-.12.06-.12.13-.01.07.01.11.01.11.02,0,.05.04.05.08s-.01.09-.03.09-.04.03,0,.04c0,.02.01.09-.03.09-.02.03-.04.07,0,.11.02.02,0,.04-.04.05-.09.01-.1.06-.05.28.04.13.05.24.03.24-.02,0-.03.09-.04.18.01.11,0,.2-.02.22-.04,0-.08-.1-.11-.34-.02-.33-.04-.33-.12-.22-.01.07-.02.2-.01.27.01.09-.02.18-.04.18s-.05-.06-.07-.17c.01-.07,0-.16.02-.16.02-.03.04-.07.03-.14,0-.07-.03-.08-.05-.06-.04.03-.05-.01-.01-.09q.05-.12.1-.06c.08.08.09.05.12-.06-.01-.09-.02-.17-.05-.19-.02-.02-.02,0-.02.05,0,.02-.04.07-.08.08-.06.01-.07-.01-.04-.1.05-.16.04-.21-.04-.15-.04.03-.09.01-.09,0,0-.02.04-.07.08-.08.06-.01.06-.03-.04-.13-.08-.1-.09-.16-.07-.21.06-.05.08-.06.09-.01,0,.04.03.06.05.06.09-.01,0-.36-.08-.43-.05-.04-.05-.06-.03-.06.04,0,.08-.08.11-.15.03-.12.02-.16-.04-.15-.04,0-.08.08-.07.14-.01.09-.02.05-.05-.04-.01-.11.02-.2.06-.21.04,0,.06-.03.06-.05s.01-.09,0-.16c.02-.05-.03-.06-.05-.04-.04.05-.05-.04-.07-.72,0-.13,0-.16-.05-.08-.04.05-.05.14-.04.23.01.09.02.13-.05.12-.02,0-.02.05.01.11,0,.07.01.11-.03.12s-.04.07,0,.13c.03.08.04.13-.03.09-.05-.04-.07-.01-.04,0,.03.04.04.1,0,.18-.09.15-.08.21.02.15.04-.03.06-.01.05.04-.01.07-.05.1-.08.08-.07-.03-.02.22.08.28.03.06.03.08-.03.12-.04.03-.05.12-.01.25.04.13.02.2,0,.18-.05-.04-.09,0-.11.02,0,.04,0,.07.05.06.02,0,.05.04.08.08,0,.04-.04.07-.06.05-.05-.01-.04.03,0,.16s.04.15,0,.16c-.05-.04-.08.06-.05.14.03.08-.08.06-.11-.03q-.05-.06-.04.05s.06.12.1.12c.02.02,0,.04-.08.06-.15.03-.3-.08-.19-.12.04-.03.06-.08.05-.12,0-.04.01-.09.03-.09.04,0,.03-.07-.06-.12q-.1-.09-.11.15c0,.11,0,.31.01.46.02.13.02.31,0,.35-.03.07-.02.18,0,.22.03.06.02.13,0,.13-.06.03-.08.39-.05.85,0,.42,0,.49-.1.42-.07-.03-.11,0-.12.09-.03.09-.03.12.03.06.04,0,.11-.04.13,0,.05.01.03.04-.08.08-.1.06-.14.11-.15.2.03.08.04.11.03.06,0-.07.05-.12.09-.15.06-.05.09,0,.12.22.02.17.02.33.02.37-.07.12-.14.09-.19-.1-.03-.22-.14-.24-.13,0,.01.09.03.22.02.31,0,.11.01.29,0,.38.01.11-.02.22-.03.29-.04.03-.03.09-.03.12.03.04.03.06.01.09-.04.03-.03.09,0,.16.03.06.01.11-.03.12s-.06.05,0,.11c.03.08.01.09-.19.1-.15.03-.26.06-.29.12-.04.07-.19.1-.28.02-.07-.05-.05-.08.01-.09.06-.01.06-.03.01-.09-.08-.08-.04-.13.07-.12.07.03.07.01.01-.07-.05-.08-.06-.14-.02-.2q.06-.05,0-.02c-.06.05-.07-.01-.07-.23-.02-.15,0-.31,0-.36.04-.18.02-.38-.07-.57-.09-.23-.14-.8-.02-.69.03.04.03.08.02.13,0,.02,0,.04.05.04.02,0,.03-.09.02-.18-.03-.08-.07-.17-.11-.16,0,0-.03-.08-.02-.17-.01-.09,0-.51,0-.95,0-.53,0-.73.06-.74.02.02.06-.01.06-.01,0-.04-.05-.08-.08-.08-.02,0-.04-.33-.06-1.03,0-.55,0-1.11-.02-1.22.02-.56.02-2.45.02-2.84.01-.25.03-1.2.07-2.12.04-1.94.11-3.86.15-4.26.03-.29.05-.32.22-.37.25-.11.63-.1.92-.02.19.08.27.07.29.02.02-.05.08-.04.25.05q.21.1.26-.02t.66-.02c.11,0,.25.25.29.57.07.34.12,1.98.08,2.96Zm-3.18,11.98c.01-.09,0-.22.01-.27,0-.04,0-.11.03-.12.02,0,.03.04.01.11-.01.09,0,.18,0,.22.03.06.02.13,0,.18-.04,0-.05-.04-.06-.12Zm.15-2.51s-.08.04-.08.06c0,.04.05.06.07.05s.06-.03.06-.08c.02-.05,0-.07-.05-.04Zm.02-.36s-.03-.06-.05-.06c-.04.03-.04.05-.01.07,0,.04.05.04.05.04.02,0,.02-.03.02-.05Zm-.04,1.76s-.05.12-.02.16q.06.1.1-.1,0-.16-.07-.05Zm.56,1.97s-.04.05-.06.05c-.02.03-.02,0-.03-.04.02-.03.04-.07.04-.07.02,0,.05.01.05.06Zm-.02-4.24s-.06.03-.06.05c0,.07.03.06.05.06,0,0,.04,0,.04-.07.02-.03,0-.04-.03-.04Zm.44-1.92c-.06.03-.1.06-.15.05-.02-.02-.02,0,0,.02.06.1.08.1.15-.05q.05-.1,0-.02Zm-.03,2.22s-.05-.06-.09-.05c-.04,0-.06.01.01.09.07.05.14.02.08-.04Zm0-1.64s0-.07-.03-.06c-.02,0-.04.05-.06.08,0,.04,0,.07.05.06.02,0,.04-.03.04-.07Zm.04,5.43s-.05-.01-.05-.04c-.01-.11.02-.22.08-.21.09,0,.07.23-.03.25Zm.04-.72s.08.12.07.21c0,.16-.11.22-.12.06,0-.04.01-.07.04-.07.04,0,.04-.07-.02-.13-.04-.1-.01-.11.04-.07Zm.09-.33s-.04.05-.06.05c-.02,0-.06.01-.07-.03,0-.04.04-.07.06-.08.02,0,.07.01.07.05Zm.02-.18c-.04.05-.06.05-.09.01-.05-.04-.03-.08-.01-.11.08-.1.13-.02.1.09Zm.22-4.9s.04-.03.04-.05c0,0-.02-.02-.05-.01h-.09s-.04.09-.03.13c.02.13.04.13.05.04.01-.07.05-.1.08-.1Zm.23,1.8c.02.31-.01.42-.11.33-.03-.06-.05-.06-.05-.01s-.03.09-.08.1c-.02,0-.06.01-.07-.03,0-.02.03-.12.05-.16.04-.05.07-.12.07-.15-.05-.24-.04-.3.07-.32.09-.01.09.03.12.25Zm-.08.97c0,.07-.01.09-.08.1-.06.03-.11.02-.11,0-.02-.15.15-.25.19-.1Zm-.18.47s.02-.03.06-.03c.02.02.05.04.05.06,0,.02-.02.03-.04.03-.04,0-.07-.03-.07-.05Zm.22-.92q.06.12-.04.21c-.08.06-.1.06-.13,0-.03-.04-.01-.09,0-.13.02,0,.02-.05.01-.09-.02,0,0-.04.04-.05.04,0,.09.03.12.07Zm-.05,1.34s0,.02-.06.03c-.07.01-.09,0-.05-.01.04-.05.08-.04.11-.02Zm.03-.25s-.01.09-.05.1c-.08.06-.08.04-.09-.03-.02-.13.11-.2.15-.07Zm.02-3.22s-.03-.06-.09,0c-.04.03-.06.08-.03.09.05.06.14.02.12-.09Zm.37-1.77s.06-.23.03-.43c0-.18-.02-.35-.04-.35-.04,0-.04.07-.02.16s.01.26,0,.42c0,.18,0,.24.02.2Zm.06-.9s-.05-.04-.07-.03c-.04,0-.04.03-.02.05.03.04.05.06.07.05s.02-.03.01-.07Zm0-.33c0-.07-.04-.13-.06-.12-.02-.02-.04.03-.03.12,0,.07.04.13.06.12.04-.03.04-.07.03-.12Zm-.06-.63c.05.08.11,0,.09-.13-.03-.04-.06-.1-.06-.12,0,0-.02.03-.03.09-.04.05-.03.14,0,.16Zm.17.3s-.03-.04-.07-.05c-.07-.01-.09,0-.06.03.03.04.14.07.14.02Zm0,5.99s.07.03.07.05c0,.02-.02.03-.06.03-.02,0-.05-.04-.05-.06,0-.02.02-.05.04-.03Zm.05.43c.02.13,0,.2-.02.2s-.05-.04-.05-.08c0-.07,0-.16.02-.23q.03-.07.06.1Zm-.05-.72c-.03-.06-.03-.22,0-.36l.02-.22.05.19c.01.11.01.26,0,.35,0,.11,0,.13-.06.03Zm.18-2.07c-.11.04-.1.08-.04.07.04,0,.08-.04.08-.08.02-.03,0-.04-.04,0Zm0-.36c-.11.04-.1.1-.01.09.02,0,.06-.03.06-.08.02-.03,0-.04-.05-.01Zm.15,4.01c-.03.14-.11.15-.17.05-.02-.02-.03-.04.02-.03.02.02.06-.01.11-.04.06-.08.08-.06.05.01Zm-.07-1.83c.08.1.1.25.02.2-.05-.04-.08-.1-.09-.16q-.01-.11.06-.03Zm.05.59c0,.11-.02.22-.01.25.02.02.02.13-.01.25l-.06.21v-.24c0-.13,0-.29.02-.34.02-.03,0-.16-.01-.29-.02-.13,0-.18,0-.13.03.04.05.08.08.08.04,0,.04.11,0,.22Zm.24-3.39c-.09.01-.11.04-.11.2.03.04-.01.09-.03.12-.04.03-.04.05,0,.04.09-.01.1.25.04.35-.04.05-.05.1-.05.12,0,.07.18.04.24-.06.08-.1,0-.67-.1-.65-.02,0,0-.04.04-.07q.06-.05-.03-.04Zm-.07-.23s.03.06.07.05c.02,0,.06-.03.08-.08,0-.02-.03-.06-.09-.03-.02,0-.06.03-.06.05Zm.19.08s-.05-.01-.09.01c-.04,0-.08.06-.08.06,0,.02.05.01.09,0,.04,0,.08-.04.08-.08Zm-.13-.82c-.05.12-.05.14.06.1.04-.03.08-.1.07-.14.03-.14-.06-.12-.13.04Zm.13.33c-.01-.09-.06-.15-.11-.16q-.06.01,0,.04.07.03.03.04s-.06.08-.05.14.03.08.08.08.06-.05.05-.14Zm-.02-2.44s-.03-.08-.05-.08c-.02,0-.04.05-.01.09.03.04.05.08.08.08,0,0,0-.04-.01-.09Zm.03,5.83s-.04.07-.06.08c0,0-.02-.02-.03-.06,0-.02.02-.05.06-.05.02,0,.02.02.03.04Zm.09-1.24c.02.15,0,.31-.04.36-.02.05-.04.03-.05-.04.02-.05-.02-.13-.04-.17-.03-.04-.04-.13.02-.22.03-.09.05-.16.02-.18-.02-.02,0-.04.04-.05s.05.06.06.3Zm-.06.54s.05.04.03.08c-.03.14-.05.14-.07-.01,0-.04.01-.09.04-.07Z"/>
<path class="c" d="m67.52,17.88c-.44,2.29-1.6,4.48-2.9,5.58-.46.39-.67.49-.76.44-.07-.05-.07-.03-.06.05,0,.07-.07.15-.23.24-.62.37-1.43.59-1.98.57-.18-.02-.69-.04-1.11-.04-1.77-.06-2.09-.14-2.7-.55-.56-.42-1.28-1.43-1.47-2.04-.01-.11-.05-.24-.08-.3-.09-.21-.19-.66-.24-1.23-.33-2.99.78-6.61,2.61-8.4.85-.83,1.42-1.17,2.29-1.31.58-.1.63-.1,1.13.06.53.16,1.07.22,1.65.28.95.02,1.76.49,2.66,1.51,1.29,1.47,1.63,2.95,1.2,5.13Zm-9.66,2.16s-.03-.04-.07-.03c-.02,0-.04.05-.03.09,0,.04.03.06.05.04.04,0,.06-.05.05-.1Zm.05-.47c0-.07-.12-.07-.14-.02s0,.07.05.06c.04,0,.09-.01.08-.04Zm.56.04s0-.07-.03-.06-.04.03-.06.08c0,.04,0,.07.05.06.02,0,.04-.03.04-.07Zm6.03-5.77s-.11-.2-.2-.37c-.2-.34-.61-.85-.97-1.22l-.28-.26-.3.07c-.9.24-2.02,1.33-2.77,2.7-.42.73-.58,1.16-.82,1.93-.73,2.47-.59,4.94.38,6.35.2.32.75.87.81.86.04,0,.19-.05.38-.17.16-.09.39-.22.47-.28.1-.06.18-.12.21-.12.06-.01.76-.64,1.11-1,.87-.94,1.47-2.02,1.96-3.56.44-1.43.58-2.43.46-3.38-.08-.83-.16-1.11-.44-1.55Zm1.82,4.98s-.06.03-.08.08t.03.04s.09-.01.1-.06c0-.04,0-.07-.05-.06Zm.14-.29c-.01-.11-.07-.03-.08.08q0,.07.05.06s.04-.07.03-.14Zm.26-1.09c-.03-.06-.03-.04-.04.03-.07.17-.05.28.02.15.02-.05.03-.12.02-.18Zm.06-.76c-.05.12-.08.24-.07.32.01.09,0,.18-.02.18-.02.05-.03.09,0,.11.05.06.15-.2.13-.51q.02-.22-.04-.1Zm.08-.77c-.02-.15-.05-.21-.04-.13-.01.09-.02.16-.06.19,0,.02,0,.16.04.28.05.19.07.21.08.08.01-.07.01-.27,0-.42Zm.67.6c.01-.07,0-.11-.04-.11-.02,0-.04.05-.05.12-.01.07,0,.13.04.13.02,0,.04-.07.05-.14Z"/>
<path class="c" d="m81.13,24.17c-.01.07-.62-.39-.64-.49,0-.02-.18-.19-.4-.36-.1-.07-.19-.15-.22-.19.08.08.13.16.09.16-.02,0,0,.02.05.06.09.05.64.54.82.73.05.08.11.18.12.27.01.11.02.13-.08.06-.02-.02-.11-.03-.15,0s-.09.01-.11-.03t-.02.03c.01.11-.09.17-.1.08,0-.07-.28-.29-.75-.72-.17-.13-.3-.28-.3-.28-.03-.04-.05-.06-.09-.05-.09.01.04.15.29.35.12.11.23.23.26.29,0,.07.06.12.1.09.02,0,.05.04.04.13-.01.09.01.09.07.05q.06-.03.07.01c-.04.07.27.36.3.3.02-.03.02,0,0,.04,0,.04-.09.15-.17.21-.08.08-.13.16-.13.18s-.04.05-.08.06c-.04,0-.08.06-.08.08.01.09-.4.51-.47.48,0-.02-.07-.01-.14-.02-.04,0-.29-.17-.54-.42-.25-.23-.84-.73-1.31-1.14-.47-.39-.96-.82-1.14-.97-.15-.13-.47-.43-.7-.64-.42-.35-.87-.81-1.79-1.75-.91-.89-1.04-1.07-1.19-1.25-.23-.27-.28-.29-.46-.15-.11.15-.11.2-.15.78.01.11-.01.27,0,.35-.02.16-.07,1.56-.06,1.63t-.02.03c-.07-.05-.11-.56-.1-1.12.01-.27.02-.51,0-.53-.02-.02-.03-.06.01-.07.02,0,.03-.12.01-.27,0-.18-.04-.28-.08-.28-.02,0-.04.07-.03.12,0,.07-.03.12-.05.12-.02,0-.02.05.01.11s.06.15.04.17c-.03.09-.04.58-.04.89.02.17,0,.31-.05.34-.04.03-.04.07.01.09.09.03.03.26-.06.23-.07.01-.11.02-.15.07,0,.04-.02.03,0-.04,0-.11-.02-.13-.06-.12-.04.03-.05.1-.02.16,0,.06,0,.11-.03.12-.06.01-.07-.05-.08-.25s-.01-.26-.05-.24c-.04,0,0-.07.02-.16.07-.14.08-.24.02-.34-.07-.19-.09-.56,0-.73.06-.21.04-.38-.09-.36-.04,0-.08.04-.08.06,0,.04-.04.07-.1.08-.04,0-.06.03-.04.07,0,.04.01.11-.02.16-.04.05-.04.07,0,.04.08-.08.18.01.11.14-.08.1-.11.35-.05.3.04-.05.08-.04.09-.01,0,.04-.04.07-.06.08s-.04.07-.07.12c0,.04-.03.12-.05.16q0,.07.05.04c.06-.05.06-.03.01.09-.01.07-.07.12-.14.13q-.06.01.01.09c.09.03.1.09.08.32-.02.16-.05.3-.07.32-.04.05-.06.05-.05-.01.02-.05,0-.11-.02-.13-.04,0-.06.03-.05.12.01.09.04.13.08.12.04,0,.03.04-.03.09-.06.08-.08.1-.03.09.13-.04.18,0,.16.08-.03.14-.09.17-.15.03-.03-.06-.03-.04-.04.05,0,.06.06.1.1.09.09-.01.09.03.06.12,0,.07-.02.2,0,.29.01.11,0,.2,0,.22,0,.02-.06.03-.11.04-.08.04-.11.02-.1-.12.01-.07,0-.16.04-.18.08-.08.09-.17,0-.35-.07-.17-.15-.17-.27-.02-.09.13-.08.21.04.15.11-.04.11-.02.1.12,0,.11-.01.27,0,.38.02.15,0,.18-.15.2-.11.02-.24.06-.34.1-.11.04-.26.04-.42,0q-.27-.04-.28-.27c-.01-1,0-1.26-.02-1.53,0-.13.01-.42.01-.62,0-.98,0-1.75-.05-1.83-.03-.06-.06-.12-.1-.12-.11.02-.57-.35-.59-.48-.01-.11.05-.16.36-.3.25-.15.37-.24.38-.33.04-.05.07-.68.07-1.37.04-.72.09-1.9.16-2.62l.1-1.33-.19-.1c-.07-.05-.17-.11-.17-.13,0-.07-.32-.3-.46-.32-.05-.01-.38-.2-.7-.44q-.58-.41-.56-.62c.12-.46,1.55-1.57,2.8-2.13,1.04-.48,2.71-.91,3.46-.93.51,0,1.15.17,1.62.44.52.29,2.11,1.54,2.4,1.87.33.37.49.72.57,1.17.23,1.29-.52,2.73-2.31,4.42-.35.35-1.15,1.06-1.39,1.23-.51.37-.49.32-.06.76.2.21.56.57.78.78.21.23.65.62.95.91.3.28,1,.9,1.5,1.37,1.05.96,1.27,1.14,1.92,1.75.75.7,1.15,1.1,1.12,1.17Zm-11.59-11.66s-.03-.04-.07-.03c-.02,0-.02.03,0,.04,0,.04.03.06.05.06,0,0,.02-.03.01-.07Zm.92,9.61s-.04.05-.03.07c0,.02.03.04.03.04.02,0,.04-.03.06-.05,0-.02,0-.07-.05-.06Zm.37-.22s-.03-.06-.07-.05c-.02,0-.06.03-.06.08-.02.05,0,.04.05.04.04,0,.09-.01.08-.06Zm-.08.28s-.06.03-.06.08c0,.02.01.11,0,.22,0,.18.07.23.12.07.02-.16-.02-.37-.07-.37Zm.6-6.67c.04-.05.08-.08.03-.09,0-.02-.06.01-.12.06-.09.13-.03.14.09.03Zm.41,6.92c.03.77.01.97-.03.98-.06.01-.09-.05-.1-.25,0-.13,0-.33.01-.42-.02-.15-.02-.2-.11-.2q-.11,0-.03.12t-.02.03c-.07-.01-.12-.09-.13-.13,0-.07.13-.16.19-.08.02,0,.07.01.11,0,.02,0,.02-.03,0-.04-.05-.04-.08-.08-.04-.17.08-.21.14-.13.15.17Zm-.26-6.26s-.02-.02-.07-.05c-.02,0-.04,0-.04.05,0,.02.03.04.05.04.04,0,.06-.01.06-.03Zm-.02,6.17s-.05-.01-.05-.06c0-.02.04-.05.06-.05.02,0,.05.01.03.04-.02.05-.04.07-.04.07Zm.01-7.1s-.06.05-.05.12c.01.11.05.08.08-.06,0-.07-.01-.11-.03-.06Zm.08,5.91s-.06.03-.06.05c0,.04.03.06.03.06.02,0,.04-.03.06-.08.02-.03,0-.04-.03-.04Zm.02-.54c-.04.07-.06.19-.06.23.02.15.09.03.11-.2q0-.13-.05-.04Zm0-.49c-.06-.1-.05-.08-.04.05s.02.15.06.1c.04-.07.05-.12-.02-.15Zm.47,2.65c0,.07-.03.14-.05.14-.02,0-.07-.05-.08-.12,0-.07.02-.16.05-.16.02,0,.08.08.08.14Zm-.08-3.09c-.03-.06-.05-.04-.04.03,0,.07.04.11.03.06.02,0,.01-.07.01-.09Zm.08,3.6s-.01.07-.06.08c-.02,0-.05-.01-.05-.04,0-.02.01-.07.03-.09.04-.03.07.01.07.05Zm.32-4.14s-.14-.04-.16-.02c-.02.03.03.04.07.03.04,0,.09-.01.09-.01Zm4.13-8.61c-.05-.41-.15-.46-.77-.47-.57,0-1.35.18-2.21.48-.76.26-.86.32-.84.52.02.15-.06,1.61-.17,2.69-.08,1.12-.18,2.43-.18,2.45,0,.07.11-.02.78-.62,2.59-2.23,3.56-3.67,3.38-5.04Zm-1.58,5.68c-.01.07,0,.07.05.06.02,0,.04-.05.05-.1,0-.11-.08-.08-.11.04Zm3.37,6.3c-.05-.06-.15-.15-.25-.2l-.17-.13.15.13c.07.05.13.16.14.2,0,.07.06.1.1.09.09.03.11,0,.03-.09Zm.84.7c-.05-.06-.25-.23-.42-.35-.27-.22-.29-.24-.17-.08.06.1.18.21.25.27.05.04.12.09.12.11.01.09.25.25.29.2,0,0-.03-.08-.08-.14Zm-.01-.8c-.07-.05-.17-.11-.17-.11-.04,0,.03.06.1.12.08.08.17.13.19.12s-.03-.06-.13-.13Zm.42.4c-.05-.08-.12-.11-.15-.13-.04,0,0,.07.11.14.17.15.19.15.04,0Zm.68,1.57s.07.01.07.05c0,.04-.02.05-.02.05-.02,0-.04,0-.07-.03-.03-.04-.03-.06.01-.07Zm.15-.18s.08.1.12.09c.02,0,.04-.05.01-.09-.03-.08-.14-.09-.13,0Z"/>
</svg>